<svg width="10" height="7" viewBox="0 0 10 7" fill="none" xmlns="http://www.w3.org/2000/svg">
<path d="M9.32478 1.58705C9.32478 1.44754 9.26897 1.30804 9.16853 1.20759L8.4096 0.44866C8.30915 0.348214 8.16964 0.29241 8.03013 0.29241C7.89063 0.29241 7.75112 0.348214 7.65067 0.44866L3.98996 4.11496L2.34933 2.46875C2.24888 2.3683 2.10938 2.3125 1.96987 2.3125C1.83036 2.3125 1.69085 2.3683 1.5904 2.46875L0.831473 3.22768C0.731027 3.32812 0.675223 3.46763 0.675223 3.60714C0.675223 3.74665 0.731027 3.88616 0.831473 3.98661L2.85156 6.0067L3.61049 6.76562C3.71094 6.86607 3.85045 6.92188 3.98996 6.92188C4.12946 6.92188 4.26897 6.86607 4.36942 6.76562L5.12835 6.0067L9.16853 1.96652C9.26897 1.86607 9.32478 1.72656 9.32478 1.58705Z" fill="white"/>
</svg>
