<svg width="7" height="7" viewBox="0 0 7 7" fill="none" xmlns="http://www.w3.org/2000/svg">
<path d="M6.51897 4.92522C6.51897 4.79967 6.46875 4.67411 6.37835 4.58371L4.90179 3.10714L6.37835 1.63058C6.46875 1.54018 6.51897 1.41462 6.51897 1.28906C6.51897 1.1635 6.46875 1.03795 6.37835 0.947544L5.69531 0.264509C5.60491 0.174107 5.47935 0.123884 5.35379 0.123884C5.22824 0.123884 5.10268 0.174107 5.01228 0.264509L3.53571 1.74107L2.05915 0.264509C1.96875 0.174107 1.84319 0.123884 1.71763 0.123884C1.59208 0.123884 1.46652 0.174107 1.37612 0.264509L0.69308 0.947544C0.602679 1.03795 0.552455 1.1635 0.552455 1.28906C0.552455 1.41462 0.602679 1.54018 0.69308 1.63058L2.16964 3.10714L0.69308 4.58371C0.602679 4.67411 0.552455 4.79967 0.552455 4.92522C0.552455 5.05078 0.602679 5.17634 0.69308 5.26674L1.37612 5.94978C1.46652 6.04018 1.59208 6.0904 1.71763 6.0904C1.84319 6.0904 1.96875 6.04018 2.05915 5.94978L3.53571 4.47321L5.01228 5.94978C5.10268 6.04018 5.22824 6.0904 5.35379 6.0904C5.47935 6.0904 5.60491 6.04018 5.69531 5.94978L6.37835 5.26674C6.46875 5.17634 6.51897 5.05078 6.51897 4.92522Z" fill="#1C2E36"/>
</svg>
