<svg width="20" height="21" viewBox="0 0 20 21" fill="none" xmlns="http://www.w3.org/2000/svg">
<path d="M11.2946 14.6875C11.2946 14.4565 11.115 14.2768 10.8839 14.2768H8.83036C8.59933 14.2768 8.41964 14.4565 8.41964 14.6875V16.7411C8.41964 16.9721 8.59933 17.1518 8.83036 17.1518H10.8839C11.115 17.1518 11.2946 16.9721 11.2946 16.7411V14.6875ZM14.5804 8.32143C14.5804 6.08817 12.2188 4.41964 10.1138 4.41964C8.16295 4.41964 6.68694 5.22824 5.63449 6.88393C5.51897 7.06362 5.55748 7.30748 5.72433 7.43583L7.11049 8.48828C7.17467 8.53962 7.26451 8.56529 7.35435 8.56529C7.4827 8.56529 7.59821 8.51395 7.67522 8.41127C8.15011 7.82087 8.41964 7.5385 8.70201 7.34598C8.99721 7.14062 9.4721 6.99944 9.92132 6.99944C10.7684 6.99944 11.7054 7.55134 11.7054 8.29576C11.7054 8.87333 11.2305 9.11719 10.4604 9.47656C9.54911 9.88728 8.41964 10.3878 8.41964 11.9665V12.8393C8.41964 13.0703 8.59933 13.25 8.83036 13.25H10.8839C11.115 13.25 11.2946 13.0703 11.2946 12.8393V12.4286C11.2946 12.0179 11.7054 11.774 12.3728 11.389C13.3097 10.8627 14.5804 10.144 14.5804 8.32143ZM9.85714 2.57143C14.3878 2.57143 18.0714 6.25502 18.0714 10.7857C18.0714 15.3164 14.3878 19 9.85714 19C5.32645 19 1.64286 15.3164 1.64286 10.7857C1.64286 6.25502 5.32645 2.57143 9.85714 2.57143ZM19.7143 10.7857C19.7143 5.34375 15.2991 0.92857 9.85714 0.92857C4.41518 0.92857 0 5.34375 0 10.7857C0 16.2277 4.41518 20.6429 9.85714 20.6429C15.2991 20.6429 19.7143 16.2277 19.7143 10.7857Z" fill="white"/>
</svg>
