<svg width="20" height="20" viewBox="0 0 20 20" fill="none" xmlns="http://www.w3.org/2000/svg">
<path d="M13.5 8.75C13.5 11.6445 11.1445 14 8.25 14C5.35547 14 3 11.6445 3 8.75C3 5.85547 5.35547 3.5 8.25 3.5C11.1445 3.5 13.5 5.85547 13.5 8.75ZM19.5 18.5C19.5 18.1016 19.3359 17.7148 19.0664 17.4453L15.0469 13.4258C15.9961 12.0547 16.5 10.4141 16.5 8.75C16.5 4.19141 12.8086 0.499999 8.25 0.499999C3.69141 0.499999 0 4.19141 0 8.75C0 13.3086 3.69141 17 8.25 17C9.91406 17 11.5547 16.4961 12.9258 15.5469L16.9453 19.5547C17.2148 19.8359 17.6016 20 18 20C18.8203 20 19.5 19.3203 19.5 18.5Z" fill="white"/>
</svg>
