<svg width="20" height="21" viewBox="0 0 20 21" fill="none" xmlns="http://www.w3.org/2000/svg">
<path d="M10 0.857141C4.47545 0.857141 0 5.33259 0 10.8571C0 16.3594 4.46429 20.8571 10 20.8571C15.5469 20.8571 20 16.3482 20 10.8571C20 5.33259 15.5246 0.857141 10 0.857141ZM16.9085 15.9353C16.5067 13.9375 15.5357 12.2857 13.4933 12.2857C12.5893 13.1674 11.3616 13.7143 10 13.7143C8.63839 13.7143 7.41071 13.1674 6.5067 12.2857C4.46429 12.2857 3.4933 13.9375 3.09152 15.9353C2.05357 14.5067 1.42857 12.7545 1.42857 10.8571C1.42857 6.13616 5.27902 2.28571 10 2.28571C14.721 2.28571 18.5714 6.13616 18.5714 10.8571C18.5714 12.7545 17.9464 14.5067 16.9085 15.9353ZM14.2857 8.71429C14.2857 11.0804 12.3661 13 10 13C7.63393 13 5.71429 11.0804 5.71429 8.71429C5.71429 6.34821 7.63393 4.42857 10 4.42857C12.3661 4.42857 14.2857 6.34821 14.2857 8.71429Z" fill="white"/>
</svg>
