<svg width="26" height="22" viewBox="0 0 26 22" fill="none" xmlns="http://www.w3.org/2000/svg">
<path d="M25.7143 18.7857C25.7143 18.1998 25.2288 17.7143 24.6429 17.7143H1.07143C0.485491 17.7143 0 18.1998 0 18.7857V20.9286C0 21.5145 0.485491 22 1.07143 22H24.6429C25.2288 22 25.7143 21.5145 25.7143 20.9286V18.7857ZM25.7143 10.2143C25.7143 9.62835 25.2288 9.14286 24.6429 9.14286H1.07143C0.485491 9.14286 0 9.62835 0 10.2143V12.3571C0 12.9431 0.485491 13.4286 1.07143 13.4286H24.6429C25.2288 13.4286 25.7143 12.9431 25.7143 12.3571V10.2143ZM25.7143 1.64286C25.7143 1.05692 25.2288 0.571428 24.6429 0.571428H1.07143C0.485491 0.571428 0 1.05692 0 1.64286V3.78571C0 4.37165 0.485491 4.85714 1.07143 4.85714H24.6429C25.2288 4.85714 25.7143 4.37165 25.7143 3.78571V1.64286Z" fill="white"/>
</svg>
