<svg width="15" height="14" viewBox="0 0 15 14" fill="none" xmlns="http://www.w3.org/2000/svg">
<path d="M5.71429 12C5.71429 11.375 5.19643 10.8571 4.57143 10.8571C3.94643 10.8571 3.42857 11.375 3.42857 12C3.42857 12.625 3.94643 13.1429 4.57143 13.1429C5.19643 13.1429 5.71429 12.625 5.71429 12ZM13.7143 12C13.7143 11.375 13.1964 10.8571 12.5714 10.8571C11.9464 10.8571 11.4286 11.375 11.4286 12C11.4286 12.625 11.9464 13.1429 12.5714 13.1429C13.1964 13.1429 13.7143 12.625 13.7143 12ZM14.8571 2.28571C14.8571 1.97321 14.5982 1.71428 14.2857 1.71428H3.5625C3.47321 1.28571 3.45536 0.571428 2.85714 0.571428H0.571429C0.258929 0.571428 0 0.830357 0 1.14286C0 1.45536 0.258929 1.71428 0.571429 1.71428H2.39286L3.97321 9.0625C3.83036 9.33929 3.42857 10.0089 3.42857 10.2857C3.42857 10.5982 3.6875 10.8571 4 10.8571H13.1429C13.4554 10.8571 13.7143 10.5982 13.7143 10.2857C13.7143 9.97321 13.4554 9.71429 13.1429 9.71429H4.92857C5.01786 9.53571 5.14286 9.34821 5.14286 9.14286C5.14286 8.92857 5.07143 8.72321 5.02679 8.51786L14.3482 7.42857C14.6339 7.39286 14.8571 7.14286 14.8571 6.85714V2.28571Z" fill="white"/>
</svg>
