<svg width="14" height="15" viewBox="0 0 14 15" fill="none" xmlns="http://www.w3.org/2000/svg">
<path d="M7.85714 10C7.85714 9.83929 7.73214 9.71429 7.57143 9.71429H6.14286C5.98214 9.71429 5.85714 9.83929 5.85714 10V11.4286C5.85714 11.5893 5.98214 11.7143 6.14286 11.7143H7.57143C7.73214 11.7143 7.85714 11.5893 7.85714 11.4286V10ZM10.1429 5.57143C10.1429 4.01786 8.5 2.85714 7.03571 2.85714C5.67857 2.85714 4.65179 3.41964 3.91964 4.57143C3.83929 4.69643 3.86607 4.86607 3.98214 4.95536L4.94643 5.6875C4.99107 5.72321 5.05357 5.74107 5.11607 5.74107C5.20536 5.74107 5.28571 5.70536 5.33929 5.63393C5.66964 5.22321 5.85714 5.02679 6.05357 4.89286C6.25893 4.75 6.58929 4.65178 6.90179 4.65178C7.49107 4.65178 8.14286 5.03571 8.14286 5.55357C8.14286 5.95536 7.8125 6.125 7.27679 6.375C6.64286 6.66071 5.85714 7.00893 5.85714 8.10714V8.71429C5.85714 8.875 5.98214 9 6.14286 9H7.57143C7.73214 9 7.85714 8.875 7.85714 8.71429V8.42857C7.85714 8.14286 8.14286 7.97321 8.60714 7.70536C9.25893 7.33929 10.1429 6.83929 10.1429 5.57143ZM6.85714 1.57143C10.0089 1.57143 12.5714 4.13393 12.5714 7.28571C12.5714 10.4375 10.0089 13 6.85714 13C3.70536 13 1.14286 10.4375 1.14286 7.28571C1.14286 4.13393 3.70536 1.57143 6.85714 1.57143ZM13.7143 7.28571C13.7143 3.5 10.6429 0.428571 6.85714 0.428571C3.07143 0.428571 0 3.5 0 7.28571C0 11.0714 3.07143 14.1429 6.85714 14.1429C10.6429 14.1429 13.7143 11.0714 13.7143 7.28571Z" fill="white"/>
</svg>
