<svg width="16" height="17" viewBox="0 0 16 17" fill="none" xmlns="http://www.w3.org/2000/svg">
<path d="M8 0.285713C3.58036 0.285713 0 3.86607 0 8.28571C0 12.6875 3.57143 16.2857 8 16.2857C12.4375 16.2857 16 12.6786 16 8.28571C16 3.86607 12.4196 0.285713 8 0.285713ZM13.5268 12.3482C13.2054 10.75 12.4286 9.42857 10.7946 9.42857C10.0714 10.1339 9.08929 10.5714 8 10.5714C6.91071 10.5714 5.92857 10.1339 5.20536 9.42857C3.57143 9.42857 2.79464 10.75 2.47321 12.3482C1.64286 11.2054 1.14286 9.80357 1.14286 8.28571C1.14286 4.50893 4.22321 1.42857 8 1.42857C11.7768 1.42857 14.8571 4.50893 14.8571 8.28571C14.8571 9.80357 14.3571 11.2054 13.5268 12.3482ZM11.4286 6.57143C11.4286 8.46429 9.89286 10 8 10C6.10714 10 4.57143 8.46429 4.57143 6.57143C4.57143 4.67857 6.10714 3.14286 8 3.14286C9.89286 3.14286 11.4286 4.67857 11.4286 6.57143Z" fill="white"/>
</svg>
