<svg width="21" height="19" viewBox="0 0 21 19" fill="none" xmlns="http://www.w3.org/2000/svg">
<path d="M14.1766 11.7656L15.0204 16.6992L10.6024 14.3672L6.17273 16.6992L7.0282 11.7656L3.44226 8.28516L8.38757 7.55859L10.6024 3.08203L12.8173 7.55859L17.7626 8.28516L14.1766 11.7656ZM20.3524 7.58203C20.3524 7.23047 19.9774 7.08984 19.6962 7.04297L13.8134 6.1875L11.1766 0.855467C11.0712 0.632812 10.8719 0.375 10.6024 0.375C10.3329 0.375 10.1337 0.632812 10.0282 0.855467L7.39148 6.1875L1.50867 7.04297C1.2157 7.08984 0.852417 7.23047 0.852417 7.58203C0.852417 7.79297 1.00476 7.99219 1.14539 8.14453L5.41101 12.293L4.4032 18.1523C4.39148 18.2344 4.37976 18.3047 4.37976 18.3867C4.37976 18.6914 4.5321 18.9727 4.87195 18.9727C5.03601 18.9727 5.18835 18.9141 5.3407 18.832L10.6024 16.0664L15.8641 18.832C16.0048 18.9141 16.1688 18.9727 16.3329 18.9727C16.6727 18.9727 16.8134 18.7031 16.8134 18.3867C16.8134 18.3047 16.8134 18.2344 16.8016 18.1523L15.7938 12.293L20.0477 8.14453C20.2001 7.99219 20.3524 7.79297 20.3524 7.58203Z" fill="white"/>
</svg>
